<?xml version="1.0" standalone="no"?>
<!DOCTYPE svg PUBLIC "-//W3C//DTD SVG 20010904//EN"
 "http://www.w3.org/TR/2001/REC-SVG-20010904/DTD/svg10.dtd">
<svg version="1.0" xmlns="http://www.w3.org/2000/svg"
 width="350.000000pt" height="350.000000pt" viewBox="0 0 350.000000 350.000000"
 preserveAspectRatio="xMidYMid meet">
<metadata>
Created by potrace 1.11, written by Peter Selinger 2001-2013
</metadata>
<g transform="translate(0.000000,350.000000) scale(0.100000,-0.100000)"
fill="#000000" stroke="none">
<path d="M1491 3420 c-35 -3 -103 -5 -151 -5 -49 0 -87 -2 -85 -5 5 -7 -60 -4
-73 4 -6 3 -13 2 -16 -3 -7 -11 -25 -9 -45 3 -10 6 -12 5 -7 -2 5 -9 -10 -12
-53 -12 -38 0 -61 -4 -64 -12 -4 -10 -6 -10 -6 0 -1 6 -8 12 -17 12 -8 0 -13
-4 -10 -9 7 -11 -13 -9 -31 2 -7 5 -19 5 -25 0 -7 -4 -22 -8 -33 -9 -82 -6
-101 -9 -112 -16 -6 -5 -14 -4 -18 2 -4 7 -11 8 -19 1 -6 -5 -39 -11 -74 -13
-34 -1 -62 -5 -62 -9 0 -3 -12 -6 -28 -7 -32 -2 -69 -9 -80 -16 -5 -3 -25 -6
-45 -8 -21 -1 -37 -6 -37 -11 0 -4 -4 -6 -9 -2 -9 5 -77 -16 -115 -36 -14 -8
-16 -7 -11 3 6 10 5 11 -6 1 -7 -7 -21 -13 -30 -13 -10 0 -19 -5 -21 -10 -2
-6 -13 -12 -25 -13 -12 0 -19 -5 -17 -9 3 -4 -4 -8 -16 -8 -11 0 -23 -7 -26
-15 -4 -8 -9 -13 -13 -12 -3 2 -16 -7 -28 -20 -12 -13 -20 -23 -17 -23 2 0 -7
-20 -21 -45 -24 -44 -35 -76 -15 -45 5 8 10 11 10 5 -1 -5 -6 -18 -13 -27 -7
-9 -12 -32 -11 -50 1 -18 -3 -39 -9 -47 -9 -11 -9 -13 0 -8 9 6 12 -7 12 -45
-1 -29 0 -57 1 -63 4 -19 7 -30 9 -35 1 -3 4 -21 6 -40 4 -35 12 -75 15 -75 3
0 10 -39 13 -67 1 -14 6 -24 11 -21 5 3 7 -6 4 -21 -4 -18 0 -30 11 -36 13 -8
14 -9 1 -10 -10 0 -11 -3 -4 -8 11 -7 40 -101 36 -115 -1 -5 2 -6 8 -2 5 3 10
-3 10 -14 0 -19 19 -70 30 -81 6 -6 12 -27 14 -50 1 -8 7 -25 13 -36 7 -12 9
-25 5 -29 -4 -5 -1 -5 6 -1 7 4 12 1 13 -8 2 -23 3 -27 22 -70 9 -21 17 -43
17 -48 0 -5 5 -6 12 -2 6 4 8 3 5 -3 -3 -5 0 -21 8 -36 8 -15 12 -27 9 -27 -7
0 49 -104 61 -112 6 -5 4 -8 -4 -8 -11 0 -10 -4 4 -13 11 -9 15 -19 10 -27 -5
-9 -4 -11 3 -6 7 4 12 1 12 -9 0 -9 8 -29 18 -43 11 -15 25 -42 33 -59 8 -18
17 -33 21 -33 5 0 7 -3 6 -7 -2 -11 12 -43 37 -83 22 -36 25 -42 25 -61 0 -5
5 -7 10 -4 6 3 10 -3 10 -15 0 -13 4 -19 12 -14 7 5 8 3 4 -5 -5 -7 -1 -20 9
-31 9 -10 17 -27 18 -38 0 -11 4 -19 8 -16 4 2 12 -10 19 -26 7 -16 16 -28 19
-25 4 2 8 -2 8 -9 0 -16 123 -229 135 -234 5 -2 8 -8 8 -14 0 -6 11 -26 25
-44 14 -18 25 -37 25 -43 0 -6 5 -11 12 -11 6 0 9 -3 5 -6 -3 -3 2 -15 12 -25
10 -11 24 -32 31 -47 8 -15 25 -39 38 -54 14 -16 21 -31 17 -39 -5 -8 -4 -10
3 -5 7 4 12 1 12 -9 0 -9 4 -14 8 -11 4 2 14 -9 21 -25 7 -16 16 -27 21 -24 4
3 7 -3 6 -13 0 -9 5 -16 12 -14 11 2 17 -19 12 -43 -1 -5 2 -7 6 -3 9 10 64
-64 57 -76 -4 -5 -1 -6 5 -2 7 4 12 2 12 -4 0 -6 5 -8 12 -4 7 4 8 3 4 -4 -4
-6 3 -19 14 -29 12 -10 28 -31 36 -46 8 -15 19 -25 25 -22 5 4 8 2 7 -3 -3 -9
69 -98 109 -135 12 -11 20 -24 17 -29 -3 -5 0 -7 8 -6 7 2 12 -3 10 -10 -1 -8
2 -11 8 -7 5 3 10 -2 10 -12 0 -15 2 -16 10 -3 9 13 10 13 11 0 1 -8 1 -19 0
-23 -1 -5 3 -6 9 -2 5 3 10 1 10 -6 0 -7 3 -10 6 -6 8 8 34 -18 34 -34 0 -7 3
-10 6 -6 3 3 20 -7 38 -23 17 -17 37 -30 44 -30 7 0 10 -4 7 -10 -5 -9 16 -15
38 -11 5 1 6 -2 3 -7 -7 -12 72 -51 112 -54 6 -1 12 -5 12 -9 0 -11 123 -4
146 9 12 6 24 8 28 5 3 -3 6 -1 6 5 0 7 9 12 20 12 11 0 20 5 20 10 0 6 5 10
10 10 6 0 33 18 61 40 28 22 55 40 60 40 5 0 9 8 9 17 0 9 3 13 7 10 7 -7 173
161 173 176 0 4 5 5 10 2 6 -3 10 1 10 10 0 9 5 13 10 10 6 -4 10 -3 9 2 -3
20 2 34 11 28 6 -3 10 1 10 9 0 9 4 16 9 16 6 0 20 18 32 40 12 21 25 37 29
35 4 -2 16 12 27 33 11 20 25 36 31 34 7 -1 11 1 11 5 -4 23 2 43 11 38 6 -3
10 1 10 10 0 9 5 13 10 10 9 -5 11 -1 10 20 0 3 9 15 20 27 11 12 20 26 20 30
0 5 6 6 13 2 6 -4 9 -4 5 1 -9 10 21 65 45 83 9 7 17 22 17 33 0 11 5 17 10
14 6 -3 10 1 10 9 0 9 5 16 11 16 5 0 7 5 4 10 -3 6 -1 10 5 10 6 0 8 5 5 10
-3 6 -1 10 4 10 6 0 11 6 11 13 0 8 9 22 20 32 11 10 17 21 15 26 -3 4 2 14
10 22 8 9 15 21 15 27 0 6 5 8 10 5 10 -6 14 7 11 34 -2 7 2 10 8 6 6 -3 11 1
11 9 0 9 5 16 10 16 6 0 10 8 10 18 1 22 25 54 34 44 5 -4 7 0 6 8 -4 27 0 41
10 35 6 -3 10 3 10 15 0 12 4 19 8 16 4 -2 9 5 9 17 1 12 7 23 13 25 5 2 10
13 10 23 0 11 4 18 9 15 4 -3 14 12 21 34 7 22 17 37 21 34 5 -3 9 4 9 15 0
12 5 21 10 21 6 0 9 3 8 8 -2 8 23 64 32 72 4 3 12 20 19 38 8 17 17 32 22 32
5 0 9 9 9 20 0 11 4 20 8 20 4 0 8 10 9 22 1 11 7 24 13 28 6 4 12 16 13 28 0
11 5 18 9 16 4 -3 8 4 8 16 0 12 4 19 8 16 5 -3 9 0 9 7 1 20 8 42 15 47 3 3
8 12 10 20 2 8 9 21 16 28 7 8 10 18 7 23 -4 5 -1 9 5 9 6 0 9 4 5 9 -3 5 2
16 10 25 9 8 15 17 14 18 -5 7 13 48 21 48 5 0 7 7 4 15 -3 8 4 28 16 45 12
16 18 30 15 30 -4 0 0 12 10 26 9 14 14 28 11 31 -3 3 3 18 14 33 11 15 17 30
13 34 -7 6 16 56 30 67 4 3 9 22 10 41 1 20 5 34 10 31 4 -2 8 4 8 14 2 25 4
35 13 58 23 59 29 77 29 99 0 14 4 23 11 20 8 -3 10 8 8 36 -2 22 0 40 5 40 5
0 10 14 11 32 2 17 8 38 15 47 10 12 9 13 -2 6 -11 -6 -12 -5 -5 6 8 13 10 23
17 79 1 14 7 31 11 39 6 10 5 12 -2 7 -7 -4 -12 -2 -12 3 0 6 3 11 8 11 4 0 7
13 7 29 0 16 -2 28 -5 26 -3 -2 -6 5 -6 15 0 10 4 16 8 14 11 -7 10 4 -2 26
-7 13 -7 21 0 25 8 5 8 11 0 20 -6 7 -10 17 -8 21 1 5 -5 28 -15 52 -9 23 -17
45 -18 50 -1 4 -10 13 -21 20 -10 7 -15 18 -12 24 4 6 2 8 -4 4 -6 -3 -16 0
-24 7 -7 7 -27 20 -45 27 -17 8 -30 17 -28 20 2 3 -5 7 -16 8 -10 1 -28 3 -38
4 -11 1 -17 6 -15 10 3 4 -1 8 -8 9 -7 0 -20 2 -28 4 -8 2 -28 7 -44 10 -16 3
-37 10 -47 15 -10 6 -31 10 -48 10 -16 0 -32 6 -34 13 -4 9 -6 8 -6 -2 -1 -11
-4 -11 -18 0 -15 12 -16 12 -8 -1 7 -12 6 -13 -6 -3 -8 6 -28 14 -44 17 -17 2
-30 5 -30 6 0 1 -22 3 -49 6 -61 5 -97 12 -104 18 -2 3 -14 1 -25 -5 -14 -8
-18 -8 -13 0 5 7 -7 11 -36 12 -62 1 -93 5 -112 12 -11 4 -15 3 -10 -4 4 -8 1
-8 -12 -1 -18 9 -85 14 -201 15 -29 0 -49 5 -46 10 3 5 -4 4 -15 -2 -14 -8
-23 -8 -27 -1 -5 8 -11 8 -20 0 -7 -6 -16 -7 -19 -2 -2 4 -56 9 -118 11 -249
5 -567 6 -627 1z m-165 -128 c-3 -5 10 -9 29 -9 19 0 32 3 30 6 -2 3 10 6 25
6 16 1 26 -3 24 -7 -3 -4 0 -8 5 -8 6 0 11 5 11 10 0 6 5 10 11 10 5 0 7 -6 3
-12 -5 -10 -4 -10 6 -1 9 9 19 9 33 2 15 -9 18 -8 12 2 -6 9 -3 10 8 6 38 -15
52 -19 40 -10 -16 12 348 11 366 -1 10 -6 12 -6 7 2 -9 15 6 16 21 1 8 -8 13
-8 17 0 15 23 24 10 15 -19 -6 -16 -14 -30 -19 -30 -4 0 -10 -9 -13 -20 -3
-11 -13 -20 -24 -20 -15 0 -16 -2 -3 -10 10 -6 11 -10 3 -10 -7 0 -13 -6 -13
-14 0 -7 -7 -19 -16 -26 -34 -29 -36 -48 -4 -63 17 -9 32 -11 36 -6 3 5 11 6
17 2 12 -7 21 -10 67 -17 14 -2 32 -6 40 -10 8 -3 24 -7 35 -10 66 -12 84 -19
78 -30 -4 -6 2 -4 12 4 11 9 16 10 11 3 -5 -9 -1 -13 12 -13 10 0 22 -3 26 -7
6 -7 29 -13 53 -15 7 -1 10 -5 7 -10 -4 -7 9 -10 32 -7 3 0 14 -10 25 -22 10
-12 19 -17 19 -10 0 7 10 3 22 -9 12 -11 30 -20 40 -20 11 0 16 -4 13 -10 -3
-5 0 -10 8 -10 8 0 26 -11 41 -25 15 -14 33 -22 39 -19 7 4 9 4 5 -1 -4 -4 9
-21 29 -36 20 -16 32 -29 28 -29 -4 0 3 -9 16 -20 13 -10 22 -20 19 -21 -8 -2
-144 -8 -250 -10 -52 -1 -103 -7 -114 -12 -12 -6 -16 -5 -12 1 3 5 -5 10 -19
10 -14 0 -23 -3 -21 -7 4 -6 -72 -7 -84 -1 -3 1 -9 1 -15 0 -27 -6 -52 -5 -69
3 -12 6 -16 6 -12 -1 8 -14 -34 -12 -53 2 -11 8 -13 8 -8 0 5 -9 -16 -12 -76
-13 -45 -1 -106 -2 -135 -4 -30 -1 -56 1 -59 5 -2 5 -9 6 -14 2 -6 -3 -43 -7
-82 -9 -40 -2 -72 -4 -72 -5 0 -1 -8 -3 -18 -5 -9 -2 -15 0 -12 4 2 4 -2 8
-10 8 -8 0 -12 -4 -9 -9 8 -12 -10 -10 -24 4 -7 7 -12 8 -12 2 0 -5 -9 -10
-20 -11 -13 -1 -18 2 -13 10 5 9 3 9 -8 1 -8 -6 -78 -12 -164 -13 -192 -4
-310 -8 -310 -11 0 -2 -10 -4 -22 -5 -12 -1 -20 2 -17 6 3 5 1 9 -5 9 -5 0
-12 -4 -15 -9 -7 -10 -56 -9 -73 2 -8 5 -13 4 -13 -2 0 -13 -22 -10 -32 4 -5
7 -8 6 -8 0 0 -7 -35 -12 -87 -13 -183 -5 -221 -7 -216 -14 2 -5 -6 -8 -19 -8
-13 0 -30 -6 -37 -12 -11 -11 -12 -10 -6 2 6 10 1 8 -13 -4 -12 -11 -22 -15
-22 -10 0 5 -4 4 -8 -1 -4 -6 -19 -16 -34 -24 -15 -8 -25 -17 -23 -21 2 -4 -7
-13 -20 -20 -14 -7 -25 -17 -25 -22 0 -4 -4 -8 -10 -8 -5 0 -10 8 -10 18 0 10
-6 24 -12 31 -9 10 -9 12 -1 7 7 -4 6 4 -3 24 -9 16 -12 35 -8 41 4 8 3 9 -4
5 -8 -5 -12 4 -12 29 0 20 -4 34 -8 31 -5 -3 -9 1 -9 9 0 8 5 11 11 8 6 -4 5
1 -2 10 -8 9 -14 36 -15 61 -1 24 -5 42 -9 39 -5 -2 -8 3 -8 12 0 10 5 14 13
9 9 -6 9 -4 -1 7 -17 19 -16 158 3 183 8 10 12 23 9 27 -3 5 3 9 12 9 10 0 14
3 11 7 -9 9 24 32 46 33 12 0 16 4 11 13 -4 6 -4 9 0 5 5 -4 29 1 55 11 25 10
52 16 60 13 8 -3 11 0 7 7 -5 7 1 11 16 11 41 0 68 4 68 10 0 3 12 7 26 8 15
1 34 8 42 15 13 9 14 9 8 0 -8 -14 15 -18 28 -6 7 7 17 10 81 18 22 3 56 8 75
10 19 3 52 7 72 9 20 2 42 7 49 12 8 5 10 3 4 -6 -6 -9 -4 -11 5 -5 14 8 48
13 130 16 25 2 50 7 57 11 7 6 20 5 34 -2 12 -7 19 -8 16 -3 -3 5 31 10 76 11
139 5 155 7 163 15 10 10 16 9 10 -1z m1031 -14 c34 -1 60 -4 58 -7 -2 -4 5
-7 15 -7 10 0 17 3 14 7 -2 4 4 6 13 4 10 -2 18 -4 18 -5 0 -1 50 -8 93 -12 6
-1 12 -5 12 -10 0 -4 6 -8 13 -8 21 -1 118 -66 110 -75 -5 -4 -2 -5 5 -1 8 5
21 1 32 -10 10 -11 37 -32 59 -48 23 -17 41 -34 41 -39 0 -4 5 -5 12 -1 8 5 9
2 5 -9 -4 -11 -1 -17 7 -17 18 0 58 -45 49 -55 -5 -4 -2 -5 5 -1 7 4 15 0 19
-11 4 -10 15 -24 25 -31 10 -7 18 -19 18 -25 0 -7 9 -19 20 -27 11 -8 20 -23
20 -33 0 -10 4 -16 9 -13 4 3 14 -12 21 -34 7 -22 18 -37 23 -33 6 3 7 2 4 -4
-4 -6 0 -19 8 -29 8 -10 15 -27 15 -37 0 -10 4 -16 9 -13 5 4 8 -1 7 -11 -2
-9 3 -28 10 -43 8 -14 16 -37 18 -51 2 -13 5 -24 6 -24 1 0 3 -8 5 -18 2 -10
6 -26 10 -35 20 -49 22 -281 3 -314 -7 -13 -11 -27 -10 -32 2 -5 -1 -12 -6
-15 -6 -3 -12 -15 -14 -26 -1 -11 -8 -26 -15 -33 -7 -7 -9 -20 -6 -29 4 -11 3
-14 -5 -9 -8 5 -12 -1 -12 -18 0 -14 -3 -26 -7 -26 -11 0 -33 -51 -27 -61 3
-5 0 -9 -6 -9 -6 0 -8 -4 -5 -10 3 -5 1 -10 -4 -10 -6 0 -11 -6 -11 -12 0 -24
-83 -178 -110 -206 -41 -41 -74 -67 -82 -64 -5 1 -8 -2 -8 -8 0 -5 -7 -10 -15
-10 -8 0 -15 -4 -15 -10 0 -5 -7 -10 -15 -10 -8 0 -15 -5 -15 -11 0 -5 -4 -8
-9 -4 -5 3 -13 0 -16 -6 -4 -5 -14 -8 -22 -5 -8 3 -11 1 -8 -4 3 -6 -1 -10 -9
-10 -9 0 -16 -5 -16 -10 0 -6 -3 -9 -7 -8 -11 4 -113 -25 -113 -31 0 -3 -21
-7 -46 -8 -25 -1 -54 -5 -63 -9 -20 -8 -61 -11 -56 -4 2 3 -5 6 -15 6 -10 0
-17 -4 -14 -7 6 -10 -38 -5 -55 6 -10 5 -12 4 -7 -3 9 -16 -7 -15 -22 0 -9 9
-12 9 -12 0 0 -7 -5 -12 -11 -12 -5 0 -7 6 -3 13 5 7 0 6 -11 -3 -10 -8 -16
-10 -12 -3 5 7 -5 11 -28 12 -59 3 -65 4 -65 15 0 6 -4 5 -9 -3 -6 -9 -11 -10
-15 -2 -4 6 -20 11 -37 11 -16 0 -29 5 -29 11 0 5 -4 8 -9 4 -5 -3 -12 -1 -16
4 -3 6 -12 8 -20 4 -8 -3 -15 0 -15 6 0 6 -8 11 -19 11 -10 0 -31 7 -47 14
-15 8 -32 12 -37 9 -6 -3 -7 -1 -3 5 6 11 -13 17 -37 13 -5 -1 -6 3 -2 9 3 5
-1 10 -10 10 -9 0 -13 5 -10 10 4 6 3 10 -2 9 -22 -4 -41 3 -61 21 -12 11 -26
20 -32 20 -5 0 -10 4 -10 9 0 5 -13 14 -30 21 -16 7 -27 16 -24 21 3 5 0 9 -6
9 -6 0 -23 11 -37 24 -15 14 -31 22 -37 19 -6 -3 -8 -3 -4 2 4 4 -9 22 -29 39
-60 51 -92 84 -87 90 2 3 -1 2 -8 -4 -6 -5 -13 -15 -15 -22 -1 -7 -4 -20 -6
-28 -2 -8 -7 -31 -11 -50 -5 -19 -14 -43 -22 -54 -7 -10 -10 -25 -7 -34 4 -10
2 -13 -5 -8 -8 5 -12 0 -12 -14 0 -14 -4 -19 -12 -14 -8 5 -9 2 -5 -9 3 -10 2
-17 -4 -17 -5 0 -12 -8 -16 -17 -8 -23 -79 -90 -104 -98 -10 -4 -19 -11 -19
-16 0 -5 -11 -9 -24 -9 -13 0 -26 -4 -28 -10 -1 -5 -12 -11 -23 -13 -11 -1
-26 -7 -34 -11 -11 -7 -12 -6 -6 5 7 11 6 12 -6 2 -17 -14 -209 -15 -209 -1 0
5 -5 6 -10 3 -6 -4 -24 0 -40 9 -20 9 -28 10 -24 3 5 -8 3 -8 -7 1 -7 6 -21
12 -30 12 -9 0 -36 11 -60 24 -24 14 -46 23 -51 20 -4 -3 -8 0 -8 5 0 6 -7 11
-16 11 -8 0 -13 4 -10 9 3 5 -3 11 -14 14 -12 3 -20 14 -20 27 0 11 -4 19 -9
16 -4 -3 -14 13 -21 34 -7 22 -18 40 -23 40 -6 0 -7 3 -4 7 4 3 0 15 -10 25
-9 10 -12 18 -8 18 4 0 0 9 -11 21 -10 12 -18 23 -16 25 1 2 -4 17 -12 33 -9
16 -12 32 -8 36 4 5 1 5 -5 1 -7 -4 -14 -2 -14 3 -2 16 -4 23 -19 56 -7 17
-14 34 -14 38 -1 4 -5 11 -11 15 -14 10 -18 42 -5 42 5 0 9 -3 8 -8 -2 -4 15
-30 37 -57 58 -70 95 -111 95 -102 0 4 6 2 14 -5 8 -7 12 -16 9 -20 -2 -5 5
-8 17 -8 12 0 19 -4 15 -9 -3 -5 4 -13 16 -16 12 -4 33 -19 47 -34 14 -14 21
-19 17 -12 -5 8 6 5 23 -8 18 -12 41 -23 51 -24 11 0 17 -5 15 -9 -3 -4 0 -8
5 -8 6 0 13 0 16 0 3 0 21 -9 41 -20 19 -11 32 -16 29 -10 -5 8 -1 9 11 2 38
-19 84 -31 78 -20 -5 7 -2 8 7 3 22 -14 132 -17 123 -4 -4 7 1 7 16 -1 17 -9
21 -9 15 0 -5 9 -2 10 12 6 12 -4 25 -1 33 9 7 8 21 15 31 15 11 0 19 5 19 10
0 6 7 10 15 10 8 0 15 7 15 16 0 9 5 12 13 8 6 -4 9 -4 5 1 -4 4 0 22 9 39 9
17 19 38 24 47 12 25 5 204 -9 221 -6 8 -9 18 -5 21 3 4 0 13 -7 22 -7 8 -9
15 -5 15 5 0 1 8 -8 18 -8 9 -16 19 -17 22 -6 32 -14 50 -23 50 -6 0 -8 3 -4
6 6 6 0 15 -43 64 -14 16 -32 38 -40 50 -17 24 -97 80 -114 80 -6 0 -4 -5 4
-10 13 -8 12 -10 -2 -10 -10 0 -18 6 -18 13 0 8 -3 8 -8 1 -9 -12 -111 -13
-131 0 -9 6 -12 5 -8 -1 4 -6 -39 -10 -111 -12 -187 -4 -206 -6 -221 -15 -10
-6 -12 -6 -7 2 4 7 2 12 -3 12 -6 0 -11 -6 -11 -12 0 -9 -3 -9 -8 -3 -8 12
-22 13 -39 2 -7 -4 -22 -3 -34 4 -16 8 -20 8 -14 -1 9 -14 -27 -10 -37 5 -5 6
-8 5 -8 -2 0 -8 -13 -13 -30 -13 -29 0 -30 -2 -30 -42 0 -42 -11 -46 -17 -6
-2 12 -8 27 -14 34 -20 25 -8 52 51 111 65 66 117 81 305 86 44 1 86 6 94 11
9 6 12 5 8 -1 -4 -7 3 -10 18 -9 14 0 25 5 25 9 0 4 9 3 20 -3 14 -7 20 -7 20
0 0 5 5 10 11 10 5 0 8 -4 5 -8 -2 -4 4 -8 14 -8 10 0 16 4 13 9 -7 12 30 4
39 -8 5 -6 8 -6 8 1 0 13 38 12 59 0 9 -6 12 -5 7 2 -4 7 31 11 111 12 210 3
268 6 282 14 9 6 12 5 8 -1 -4 -6 4 -10 18 -10 14 0 23 3 20 7 -5 8 74 4 82
-4 3 -3 14 -1 24 4 12 7 20 7 24 0 4 -6 12 -7 18 -3 7 5 44 9 82 9 257 5 323
9 318 17 -4 6 -1 7 8 2 18 -12 69 -14 69 -3 0 4 5 8 11 8 5 0 7 -4 4 -10 -3
-5 -2 -10 4 -10 5 0 12 4 15 9 6 9 27 8 74 -3 13 -3 20 -1 17 5 -4 5 -2 9 4 9
5 0 13 -5 16 -10 4 -7 11 -7 18 -2 12 9 33 10 230 12 68 1 97 5 97 13 0 8 3 8
8 2 8 -12 65 -18 58 -6 -5 8 57 5 82 -4 7 -3 11 -1 8 3 -3 5 33 8 79 8 47 -1
85 3 85 7 0 18 -65 105 -73 100 -6 -3 -7 -1 -3 5 3 6 -5 22 -18 35 -14 14 -22
28 -19 31 4 3 -1 6 -11 6 -9 0 -14 5 -11 10 3 6 -1 10 -10 10 -9 0 -14 3 -12
8 2 4 -4 15 -15 25 -10 9 -18 14 -18 10 0 -4 -7 3 -16 15 -8 12 -22 22 -30 22
-8 0 -13 4 -12 9 2 5 0 10 -4 10 -4 1 -18 11 -32 24 -38 35 -97 68 -108 61 -6
-4 -8 -3 -5 3 6 10 -108 73 -131 73 -7 0 -24 7 -37 16 -14 9 -25 12 -25 8 0
-5 -4 -3 -9 4 -4 7 -19 15 -32 17 -13 2 -40 9 -59 15 -33 11 -71 20 -97 22
-15 2 19 51 50 73 12 8 21 18 20 20 -2 3 -1 5 2 5 2 1 15 7 29 14 13 6 46 11
73 9 26 -2 76 -4 110 -5z m536 -52 c10 -8 27 -12 37 -9 12 3 20 0 20 -7 0 -9
3 -10 13 -1 8 6 17 7 21 3 4 -4 11 -7 14 -7 7 -1 79 -16 95 -20 4 -2 19 -3 33
-4 17 -1 23 -5 18 -13 -5 -8 0 -7 11 2 11 9 16 10 11 3 -5 -9 0 -13 18 -13 14
0 28 -5 31 -10 4 -6 10 -8 15 -5 5 3 12 0 15 -6 4 -5 14 -8 22 -5 8 3 11 1 8
-4 -3 -6 0 -10 7 -10 8 0 30 -16 49 -37 18 -20 27 -32 19 -28 -13 8 -13 6 -2
-8 8 -8 15 -39 16 -67 2 -27 6 -53 9 -56 4 -4 3 -12 0 -18 -9 -14 -12 -31 -14
-78 -1 -21 -6 -38 -11 -38 -4 0 -8 -5 -8 -11 0 -5 5 -7 10 -4 6 3 10 1 10 -4
0 -6 -4 -11 -10 -11 -5 0 -10 -11 -10 -24 0 -13 -6 -35 -13 -49 -7 -13 -12
-41 -12 -60 1 -20 -2 -34 -7 -31 -4 3 -8 -8 -8 -25 0 -16 -5 -33 -12 -37 -7
-5 -8 -3 -3 6 4 7 2 15 -4 20 -11 6 -31 68 -35 112 -1 9 -7 23 -14 30 -6 8
-13 24 -15 35 -1 11 -11 32 -20 47 -10 14 -15 26 -12 26 4 0 -3 14 -15 30 -12
17 -18 30 -13 30 4 0 3 4 -3 8 -5 4 -21 25 -34 47 -13 22 -29 43 -34 47 -6 4
-8 8 -4 8 4 0 -8 16 -27 35 -20 19 -36 38 -38 42 -1 5 -5 7 -9 6 -5 -2 -7 3
-5 10 1 6 -4 11 -10 10 -7 -2 -12 1 -10 6 1 5 -15 24 -35 44 -20 19 -34 38
-30 42 4 5 2 5 -4 2 -6 -4 -22 5 -34 18 -17 18 -19 25 -9 25 12 0 11 2 -1 10
-8 5 -10 10 -5 10 6 -1 18 -7 28 -14z m-1989 -964 c14 1 26 6 26 10 0 4 5 8
11 8 5 0 8 -4 5 -9 -7 -11 57 -9 65 2 11 15 129 -115 129 -143 0 -5 5 -10 11
-10 5 0 8 -4 5 -9 -3 -4 1 -17 9 -27 8 -10 15 -29 15 -41 0 -13 6 -23 13 -24
10 0 10 -2 0 -6 -7 -2 -13 -9 -13 -14 0 -6 5 -7 10 -4 9 5 16 -51 10 -80 -1
-5 -2 -22 -2 -38 -1 -31 -51 -92 -68 -82 -5 3 -10 2 -10 -2 0 -5 -29 -9 -65
-9 -45 -1 -63 2 -58 10 4 6 -1 5 -10 -3 -11 -9 -17 -10 -17 -2 0 6 -14 11 -31
11 -18 0 -28 4 -24 10 4 6 3 10 -2 9 -26 -5 -63 2 -58 11 5 9 -24 15 -48 11
-5 -1 -6 3 -3 8 3 5 -9 15 -27 22 -17 7 -40 22 -49 32 -10 11 -18 16 -18 11
-1 -5 -9 1 -19 13 -10 12 -21 19 -25 16 -3 -4 -6 2 -6 12 0 10 -3 15 -6 12 -7
-7 -94 82 -94 96 0 5 -5 5 -12 1 -6 -4 -8 -3 -5 3 4 6 -3 19 -14 29 -11 10
-17 24 -14 31 2 8 1 12 -3 9 -5 -3 -15 10 -22 29 -8 19 -18 31 -24 28 -6 -3
-8 -2 -3 2 4 5 0 19 -9 33 -9 13 -11 22 -6 18 6 -3 13 -2 17 3 6 11 45 10 45
-1 0 -4 5 -8 11 -8 5 0 8 4 5 9 -5 8 64 11 261 13 50 1 70 5 66 12 -4 6 0 5 9
-2 8 -6 27 -11 42 -10z m671 -584 c5 4 5 1 1 -5 -4 -7 -2 -13 4 -13 6 0 8 -5
4 -12 -4 -6 -3 -8 3 -5 6 4 23 -5 39 -18 39 -34 162 -108 179 -108 8 0 12 -4
9 -9 -3 -4 5 -8 18 -8 18 0 20 -2 8 -10 -12 -8 -9 -10 11 -10 30 0 81 -23 74
-33 -3 -4 -2 -5 1 -2 4 2 22 -2 41 -10 19 -8 31 -10 27 -4 -3 6 5 3 20 -6 14
-10 26 -14 26 -10 0 4 7 2 15 -5 8 -7 21 -10 30 -7 8 4 17 2 21 -4 3 -6 12 -8
20 -5 8 3 14 0 14 -6 0 -6 6 -5 17 3 11 10 14 10 9 2 -7 -13 28 -19 78 -13 10
1 15 -3 12 -8 -3 -6 2 -9 11 -7 10 2 18 4 18 5 0 7 36 6 41 -1 3 -5 10 -9 15
-9 6 0 7 5 3 11 -5 8 -1 8 14 0 24 -13 35 -14 29 -3 -3 4 8 7 23 7 16 1 26 -3
24 -7 -3 -4 0 -8 5 -8 6 0 11 4 11 8 0 4 10 8 23 9 62 2 105 9 100 16 -3 5 1
8 8 6 30 -4 70 1 65 9 -2 4 7 9 22 10 14 1 31 7 36 12 6 6 23 10 39 10 16 0
26 4 22 10 -3 6 2 10 12 10 11 0 25 6 32 13 12 10 13 8 6 -8 -4 -11 -10 -28
-12 -37 -3 -10 -9 -18 -14 -18 -5 0 -9 -9 -9 -20 0 -10 -6 -23 -14 -27 -8 -4
-15 -12 -17 -18 -4 -23 -12 -35 -18 -30 -4 2 -8 -1 -8 -8 -1 -24 -8 -42 -25
-61 -10 -11 -18 -26 -18 -33 0 -7 -4 -13 -10 -13 -5 0 -10 -7 -10 -15 0 -8 -4
-15 -10 -15 -5 0 -10 -5 -10 -11 0 -5 -11 -26 -25 -46 -13 -20 -22 -40 -19
-45 3 -5 0 -7 -8 -6 -7 2 -12 -2 -11 -8 1 -7 -7 -20 -17 -29 -11 -10 -20 -24
-20 -32 0 -7 -5 -13 -12 -13 -6 0 -8 -3 -5 -6 4 -4 -7 -24 -24 -45 -17 -22
-27 -39 -22 -39 4 0 3 -4 -2 -8 -17 -12 -70 -87 -67 -94 1 -5 -5 -8 -13 -8 -8
0 -15 -7 -15 -16 0 -9 -10 -25 -22 -35 -11 -11 -18 -19 -13 -19 4 0 -4 -12
-19 -26 -14 -15 -26 -33 -26 -41 0 -8 -4 -11 -10 -8 -9 6 -14 -8 -11 -28 1 -5
-3 -6 -9 -2 -5 3 -10 -1 -10 -10 0 -9 -4 -13 -10 -10 -5 3 -10 1 -10 -5 0 -6
-11 -23 -24 -37 -14 -15 -22 -31 -19 -36 3 -6 1 -7 -5 -3 -7 4 -12 1 -12 -8 0
-9 -3 -15 -7 -13 -5 1 -9 -1 -10 -6 -5 -15 -28 -35 -35 -30 -5 2 -8 -2 -8 -9
0 -8 -9 -20 -19 -28 -11 -7 -18 -17 -15 -22 3 -4 -2 -8 -10 -8 -9 0 -16 -7
-16 -17 0 -9 -3 -14 -6 -10 -3 3 -23 -11 -45 -32 -21 -21 -40 -36 -43 -34 -2
3 -9 -5 -16 -16 -6 -12 -15 -19 -21 -16 -5 4 -9 2 -9 -3 0 -5 -13 -15 -30 -22
-16 -7 -30 -16 -30 -20 0 -3 -6 -7 -12 -8 -15 -1 -53 -10 -53 -12 0 -1 -8 -3
-18 -5 -9 -2 -15 1 -11 6 4 8 -43 15 -69 10 -5 -1 -6 3 -2 9 5 9 -9 15 -18 8
-2 -2 -11 5 -21 15 -10 9 -22 14 -28 11 -7 -4 -8 -2 -4 5 4 6 0 14 -11 18 -10
3 -28 17 -40 31 -13 14 -23 22 -23 18 0 -4 -6 -1 -14 6 -8 7 -11 17 -8 22 3 5
-2 7 -11 3 -10 -4 -16 -2 -14 6 1 7 -4 11 -10 10 -7 -2 -12 3 -10 10 1 6 -4
11 -10 10 -7 -2 -12 3 -10 10 1 6 -4 11 -10 10 -7 -2 -12 3 -10 10 1 6 -4 11
-10 10 -7 -2 -12 0 -12 5 3 19 -2 33 -11 27 -5 -3 -10 -2 -10 2 0 5 -13 23
-30 41 -16 18 -30 38 -30 43 0 6 -4 7 -10 4 -10 -6 -15 9 -10 30 1 5 -1 7 -5
3 -9 -8 -45 23 -39 34 3 4 0 8 -6 8 -6 0 -8 5 -5 10 3 6 -2 10 -11 10 -10 0
-15 3 -11 6 3 4 -4 15 -16 25 -12 10 -19 18 -15 19 4 0 -4 12 -17 26 -14 15
-22 32 -18 38 3 6 3 8 -1 4 -7 -6 -76 74 -76 88 0 6 -62 87 -73 95 -5 3 -8 9
-8 13 3 20 0 26 -9 21 -5 -3 -10 1 -10 9 0 9 -5 16 -11 16 -5 0 -8 4 -5 8 3 5
-6 20 -20 35 -13 15 -24 29 -24 32 1 21 -1 26 -8 21 -4 -2 -14 4 -21 16 -7 11
-8 17 -3 14 6 -3 5 5 -1 18 -7 13 -15 22 -19 20 -5 -3 -8 1 -8 9 0 7 -10 24
-22 37 -13 14 -22 26 -20 27 7 8 1 23 -8 18 -6 -4 -10 5 -10 20 0 15 -4 24
-10 20 -6 -3 -10 0 -10 8 0 8 -7 20 -15 27 -9 7 -13 15 -11 18 3 3 -4 17 -14
33 -13 17 -17 30 -10 34 6 3 13 -1 16 -9 3 -9 10 -13 15 -10 9 5 75 -14 95
-28 6 -4 14 -5 18 -1 10 10 37 13 31 3 -7 -12 185 -12 200 0 7 6 17 10 21 9 5
-1 22 -1 37 0 20 1 26 5 21 14 -5 7 0 6 11 -3 10 -8 16 -10 12 -4 -4 7 9 16
33 24 22 7 47 21 56 32 10 10 22 18 28 18 6 0 29 16 50 35 22 19 37 35 33 35
-4 0 9 16 28 37 19 20 32 40 29 45 -3 4 0 8 5 8 6 0 11 7 11 16 0 24 40 56 55
44 6 -5 16 -6 20 -2z"/>
<path d="M2892 2498 c-6 -6 -12 -18 -12 -25 0 -7 -6 -13 -13 -13 -7 0 -19 -9
-27 -20 -8 -11 -22 -20 -31 -20 -10 0 -19 -5 -21 -11 -2 -5 -27 -11 -55 -12
-31 0 -49 -5 -46 -10 4 -6 1 -7 -7 -2 -18 11 -91 14 -84 4 5 -9 -19 -5 -50 7
-12 5 -17 4 -13 -3 7 -11 -48 -11 -59 0 -10 10 -26 9 -20 -1 6 -10 -30 -9 -40
1 -10 10 -26 9 -20 -1 3 -5 -1 -9 -9 -9 -8 0 -12 4 -9 9 6 10 -10 11 -20 1
-11 -11 -67 -12 -60 -2 3 5 1 9 -5 9 -5 0 -12 -4 -15 -8 -6 -10 -46 -10 -63 1
-6 4 -14 1 -16 -5 -4 -10 -6 -10 -6 0 -1 6 -6 12 -12 12 -5 0 -8 -4 -5 -8 2
-4 -4 -8 -14 -8 -10 0 -17 3 -15 6 2 4 -2 7 -10 7 -8 0 -12 -4 -9 -9 3 -4 -7
-3 -21 2 -34 13 -38 13 -29 -2 5 -9 2 -9 -9 1 -12 9 -17 10 -17 2 0 -7 -5 -9
-12 -5 -16 10 -78 12 -72 2 3 -4 -6 -4 -20 2 -17 6 -26 6 -30 -3 -3 -8 -5 -8
-5 2 -1 10 -4 11 -15 2 -10 -8 -16 -9 -21 -1 -4 7 -12 7 -26 0 -13 -8 -19 -7
-19 0 0 6 -5 8 -12 3 -17 -10 -39 -13 -34 -5 6 9 -140 9 -149 0 -4 -4 -16 -3
-26 3 -11 5 -19 6 -19 2 0 -4 -11 -8 -24 -8 -13 0 -22 3 -19 8 2 4 -1 7 -6 7
-6 0 -11 -5 -11 -10 0 -7 -6 -7 -20 0 -15 8 -20 8 -20 -2 0 -9 -3 -9 -10 2 -7
11 -10 11 -10 2 0 -8 -6 -10 -17 -5 -16 7 -47 8 -91 4 -7 0 -10 -5 -7 -11 3
-5 1 -10 -5 -10 -7 0 -6 -5 2 -14 7 -8 16 -12 19 -10 3 2 12 -12 19 -31 7 -19
17 -32 22 -29 4 3 8 -2 8 -10 0 -9 6 -16 13 -16 8 0 7 -4 -3 -10 -13 -8 -12
-10 3 -10 9 0 17 -4 17 -8 0 -5 8 -18 18 -30 10 -11 27 -32 37 -46 10 -14 23
-22 28 -19 6 3 7 2 4 -4 -7 -11 68 -93 84 -93 6 0 7 -5 4 -11 -4 -6 2 -13 14
-16 12 -3 21 -9 21 -13 0 -5 18 -21 40 -38 22 -16 38 -31 35 -34 -2 -2 11 -10
30 -17 20 -7 33 -17 30 -22 -4 -5 0 -9 7 -9 7 0 24 -9 38 -20 14 -11 33 -20
43 -20 10 0 16 -4 13 -8 -2 -4 9 -13 25 -20 16 -7 43 -18 59 -24 17 -7 30 -16
30 -20 0 -4 8 -7 18 -7 29 1 93 -27 85 -36 -5 -5 1 -3 11 5 13 10 17 10 12 3
-6 -12 19 -19 48 -14 4 1 15 -4 24 -11 13 -11 15 -11 7 2 -6 12 -5 13 6 3 7
-7 25 -13 40 -13 15 0 30 -6 32 -12 4 -10 6 -10 6 0 1 6 6 12 12 12 5 0 8 -3
6 -7 -8 -13 117 -11 125 1 5 8 8 7 8 -1 0 -7 12 -13 26 -13 17 0 23 4 18 13
-6 9 -5 9 8 0 8 -7 18 -10 21 -7 6 7 30 10 80 13 16 0 26 5 23 10 -3 4 2 8 12
8 45 0 63 4 58 12 -3 5 0 9 7 8 30 -1 48 4 43 11 -2 4 5 9 17 9 12 1 23 7 25
13 2 5 8 10 13 10 6 0 22 11 36 24 15 14 31 22 36 19 6 -3 7 -1 3 5 -3 6 1 17
9 25 8 9 15 20 15 26 0 6 5 11 10 11 6 0 10 11 10 25 0 14 4 25 8 25 10 0 36
97 34 128 -1 12 3 22 8 22 6 0 10 5 10 11 0 5 -4 8 -8 5 -4 -2 -8 4 -8 14 0
10 4 17 7 14 4 -2 7 27 6 66 0 38 -3 66 -6 61 -3 -5 -6 15 -7 45 -1 29 -7 61
-15 71 -8 9 -9 14 -3 10 6 -3 11 0 11 8 0 8 -4 12 -7 10 -4 -3 -10 12 -14 33
-8 50 -27 77 -44 60z m-39 -220 c4 -12 1 -16 -6 -11 -9 5 -9 3 -1 -8 20 -25 6
-220 -17 -244 -5 -5 -9 -18 -9 -28 0 -29 -61 -112 -74 -100 -3 4 -6 0 -6 -7 0
-7 -3 -11 -6 -7 -4 3 -13 -1 -21 -9 -8 -8 -19 -12 -24 -9 -5 4 -9 1 -9 -4 0
-6 -6 -11 -14 -11 -7 0 -26 -7 -42 -15 -16 -8 -31 -10 -34 -5 -3 5 -17 3 -33
-5 -15 -8 -25 -10 -22 -5 4 6 2 10 -4 10 -5 0 -12 -4 -15 -8 -5 -8 -142 -9
-156 -2 -3 1 -9 1 -15 0 -38 -8 -45 -8 -50 1 -4 5 -22 9 -41 9 -19 0 -33 4
-30 8 2 4 -3 8 -12 9 -48 3 -72 8 -72 17 0 5 -3 6 -7 3 -3 -4 -17 0 -31 9 -17
11 -22 12 -17 3 5 -8 0 -7 -11 3 -10 9 -23 17 -29 18 -5 1 -9 5 -8 10 1 4 -9
5 -22 2 -15 -2 -25 0 -25 7 0 6 -7 11 -15 11 -8 0 -15 4 -15 8 0 5 -6 9 -13 9
-17 0 -67 33 -67 45 0 5 -4 6 -10 3 -5 -3 -10 -1 -10 4 0 6 -7 11 -15 11 -8 0
-20 9 -27 20 -7 11 -16 20 -21 20 -4 0 -20 11 -34 24 -15 14 -30 23 -35 20 -5
-3 -8 -2 -7 3 3 20 -2 34 -11 28 -5 -3 -10 -1 -10 5 0 6 -5 8 -10 5 -6 -4 -9
-1 -8 7 2 7 -3 12 -9 11 -7 -2 -12 1 -10 5 3 11 -50 72 -57 65 -3 -4 -6 1 -6
9 0 9 -5 18 -11 20 -5 2 -7 11 -3 21 4 11 10 14 18 9 12 -10 29 -9 60 4 14 5
17 4 12 -4 -4 -7 -2 -12 3 -12 6 0 11 5 11 11 0 8 6 7 17 -2 11 -10 14 -10 9
-1 -4 6 -3 12 3 12 5 0 12 -4 16 -9 3 -6 17 -6 35 1 23 7 34 7 45 -2 8 -7 15
-8 15 -3 0 5 9 9 20 10 11 1 18 -2 15 -8 -4 -5 5 -5 20 1 33 13 38 13 30 0 -3
-5 -1 -10 4 -10 6 0 11 5 11 11 0 8 6 7 17 -2 11 -10 14 -10 9 -1 -4 6 -3 12
3 12 5 0 12 -4 16 -10 4 -6 15 -6 31 0 33 13 37 13 28 -2 -5 -9 -2 -9 9 1 14
11 17 11 17 0 0 -9 3 -10 8 -4 10 14 46 19 37 6 -4 -8 2 -8 20 -1 33 13 38 13
30 0 -3 -5 -1 -10 4 -10 6 0 11 5 11 11 0 8 6 7 17 -2 11 -10 14 -10 9 -1 -4
6 -3 12 3 12 5 0 12 -4 16 -10 4 -6 15 -6 31 0 33 13 37 13 28 -2 -5 -9 -2 -9
9 1 14 11 17 11 17 0 0 -9 3 -10 8 -4 10 13 46 19 38 6 -5 -7 3 -7 24 0 22 8
34 8 44 0 10 -8 16 -9 21 -1 3 6 12 7 18 3 18 -11 36 -12 43 -2 3 5 14 4 26
-2 15 -8 19 -8 13 1 -9 14 27 10 37 -5 5 -6 8 -5 8 4 0 11 3 11 17 0 9 -8 14
-9 11 -4 -4 7 20 11 65 11 94 2 137 7 137 16 0 15 39 3 43 -14z"/>
</g>
</svg>
